<svg viewBox="0 0 768 130" xmlns="http://www.w3.org/2000/svg" fill-rule="evenodd" clip-rule="evenodd" stroke-linejoin="round" stroke-miterlimit="2" style="fill: white;"><path d="M60.8 61.1l-2.6 2.6h-2.62l-2.61-2.6V40.2l2.6-2.6h2.62l2.6 2.6v20.9zM50.36 32.38l2.6 2.6v2.61l-2.6 2.61H29.49l-2.6-2.6v-2.62l2.6-2.6h20.87zM50.36 61.1l2.6 2.6v2.62l-2.6 2.6H29.49l-2.6-2.6v-2.63l2.6-2.6h20.87zM60.8 89.8l-2.6 2.62h-2.62l-2.61-2.61V68.9l2.6-2.6h2.62l2.6 2.6v20.9zM50.36 89.8l2.6 2.62v2.61l-2.6 2.6H29.49l-2.6-2.6v-2.61l2.6-2.61h20.87zM69.14 61.1l2.61 2.6h2.61l2.61-2.6V40.2l-2.6-2.6h-2.62l-2.6 2.6v20.9zM79.57 32.38l-2.6 2.6v2.61l2.6 2.61h20.88l2.6-2.6v-2.62l-2.6-2.6H79.57zM69.14 89.8l2.61 2.62h2.61l2.61-2.61V68.9l-2.6-2.6h-2.62l-2.6 2.6v20.9zM79.57 89.8l-2.6 2.62v2.61l2.6 2.6h20.88l2.6-2.6v-2.61l-2.6-2.61H79.57z"/><path d="M112.02 112.12H26.88l-8.96-9.06V17.88h94.1v94.24zm17.92-74.01v-8.97h-8.96V8.97h-20.17V0h-8.96v8.97h-6.72V0h-8.96v8.97h-6.72V0H60.5v8.97h-6.73V0H44.8v8.97h-6.72V0h-8.9v8.97H8.95v20.17H0v8.72h8.96v6.98H0v8.97h8.96v6.73H0v9h8.96v6.74H0v8.96h8.96v6.65H0v8.96h8.96v5.24l14.94 14.94h5.27V130h8.96v-8.97h6.73V130h8.96v-8.97h6.73V130h8.96v-8.97h6.71V130h8.96v-8.97h6.73V130h8.96v-8.97h20.17v-20.16H130v-8.98h-8.96v-6.7H130v-8.97h-8.96v-6.68H130v-8.96h-8.96v-6.73H130v-9.02h-8.96V38.1h8.9z"/><g><path d="M162.88 94.77c-.67-.48-.67-1.16-.2-2.02l4.52-6.53c.48-.86 1.06-.96 1.92-.38a26.72 26.72 0 0015.94 5.09c4.7 0 8.25-1.25 10.94-3.75 2.6-2.4 3.84-5.85 3.84-10.17v-5.19h-22.18c-.96 0-1.44-.48-1.44-1.34V62.6c0-.87.48-1.35 1.44-1.35h22.18V55.5c0-4.32-1.25-7.68-3.84-10.08-2.69-2.4-6.24-3.65-10.85-3.65a24.45 24.45 0 00-14.3 4.32c-.87.48-1.54.39-2.02-.38l-4.5-6.53c-.49-.77-.4-1.44.28-1.92a34.78 34.78 0 0120.54-6.43c7.59 0 13.83 2.11 18.82 6.24 5 4.22 7.49 10.37 7.49 18.34v21.88c0 8.07-2.5 14.21-7.5 18.34-4.98 4.13-11.32 6.24-19 6.24-8.64 0-16.03-2.4-22.08-7.1zM237.38 84.3c-1.25 6.05-3.07 10.37-5.57 12.77-2.5 2.5-6.43 3.84-11.9 4.03-.87 0-1.35-.48-1.35-1.44v-7c0-.87.48-1.35 1.35-1.54a5.64 5.64 0 004.41-2.3c1.06-1.45 1.92-3.94 2.6-7.59 1.05-6.34 1.91-16.03 2.4-29 .09-.86.57-1.34 1.43-1.34h32.64c.96 0 1.44.48 1.44 1.35v46.94c0 .96-.48 1.44-1.44 1.44h-8.25c-.96 0-1.44-.48-1.44-1.44v-38.5h-14.02c-.29 9.13-1.05 17-2.3 23.62zM325.22 94.77c-6.05 4.7-13.35 7-22.08 7-7.68 0-14.02-2.1-19.01-6.24-5-4.12-7.49-10.27-7.49-18.24V55.41c0-7.97 2.5-14.12 7.49-18.34 5-4.13 11.23-6.24 18.82-6.24 7.58 0 14.4 2.11 20.54 6.43.67.48.77 1.15.29 1.92l-4.51 6.53c-.48.77-1.16.86-2.02.38a24.45 24.45 0 00-14.3-4.32c-4.61 0-8.16 1.25-10.76 3.65-2.59 2.4-3.93 5.76-3.93 10.08V77c0 4.33 1.34 7.78 3.93 10.18 2.6 2.4 6.15 3.65 10.85 3.65 6.05 0 11.33-1.63 15.94-5 .86-.57 1.44-.47 1.92.4l4.5 6.52c.49.86.49 1.54-.18 2.02zM344.8 100.62h-9.5c-.96 0-1.44-.48-1.44-1.44V52.24c0-.87.48-1.35 1.44-1.35h8.16c.96 0 1.44.48 1.44 1.35v19.58c0 3.75-.1 8.07-.2 12.96h.1c1.83-4.13 4.9-9.6 9.12-16.6l9.6-16.42a2.18 2.18 0 011.73-.87h9.6c.96 0 1.44.48 1.44 1.35v46.94c0 .96-.48 1.44-1.44 1.44h-8.16c-.96 0-1.44-.48-1.44-1.44v-19.3c0-3.74.1-7.96.2-12.57h-.1c-1.25 2.98-4.32 8.35-9.03 16.22l-9.79 16.13c-.38.67-.96.96-1.73.96zM400.87 94.1c0 2.01-.68 3.74-2.02 4.99a6.95 6.95 0 01-5.09 2.01 6.65 6.65 0 01-5.09-2.01 6.88 6.88 0 01-1.92-5c0-2.1.68-3.84 1.92-5.18a6.95 6.95 0 015.1-1.92c2 0 3.74.67 5.08 1.92a7.02 7.02 0 012.02 5.18zM423.23 100.62h-8.83c-.86 0-1.34-.48-1.34-1.44V33.42c0-.96.48-1.44 1.34-1.44h8.83c.87 0 1.35.48 1.35 1.44v27.84l24-28.41c.57-.58 1.15-.87 1.73-.87h11.23c.67 0 1.05.2 1.25.48.1.39 0 .77-.39 1.25l-25.44 28.9 27.55 36.28c.39.48.48.96.3 1.25-.2.29-.58.48-1.16.48h-11.23c-.87 0-1.44-.29-1.73-.86l-21.31-28.7-4.8 5.18v22.94c0 .96-.48 1.44-1.35 1.44zM470.66 54.83c4.9-3.36 11.23-5.09 18.81-5.09 6.24 0 11.14 1.63 14.6 4.8 3.64 3.27 5.37 8.16 5.37 14.69v28.03c0 .77-.38 1.35-1.05 1.63a65.24 65.24 0 01-19.3 2.88c-6.24 0-11.33-1.24-15.36-3.84-4.03-2.59-6.05-6.62-6.05-12.19 0-5.09 1.92-8.93 5.67-11.52 3.84-2.59 8.92-3.84 15.36-3.84 2.59 0 5.76.29 9.6.77v-1.82c0-3.46-.68-5.96-2.12-7.5-1.44-1.43-3.93-2.2-7.48-2.2-4.7 0-8.84 1.06-12.3 3.07-.76.58-1.43.48-1.91-.38l-3.84-5.86c-.48-.67-.48-1.25 0-1.63zm8.25 30.82c0 2.2.96 3.74 2.79 4.8 1.82 1.05 4.32 1.63 7.39 1.63 2.98 0 6.05-.39 9.22-1.15V80.08a68.63 68.63 0 00-9.32-.77c-6.72 0-10.08 2.11-10.08 6.34zM531.71 55.7c3.36-1.64 7.01-2.4 11.14-2.4 6.05 0 11.04 1.72 14.78 5.08 3.75 3.46 5.67 8.35 5.67 14.6v8.54c0 6.72-2.02 11.8-6.15 15.17-4.12 3.36-9.3 5.08-15.45 5.08-5.95 0-10.95-1.72-14.98-5.18-4.13-3.36-6.14-8.45-6.14-15.17V52.43c0-5.86 1.92-10.56 5.76-13.92a29.96 29.96 0 0113.82-6.62c7.59-1.35 12.48-2.5 14.5-3.56.86-.38 1.53-.19 1.92.48l3.55 6.05c.38.87.2 1.54-.48 1.92-2.2 1.25-7.4 2.88-15.55 4.7-1.83.49-3.27.87-4.51 1.35-1.25.48-2.5 1.06-3.84 1.92a8.08 8.08 0 00-2.98 3.26 10.72 10.72 0 00-1.06 4.8v2.88zm9.9 36.09c2.97 0 5.46-.86 7.48-2.5 1.92-1.63 2.88-4.22 2.88-7.68v-8.44c0-6.92-3.36-10.37-10.18-10.37-3.74 0-7.1.77-10.08 2.3v16.42c0 3.55.96 6.14 2.79 7.77a10.34 10.34 0 007.1 2.5zM584.61 100.62h-9.5c-.96 0-1.44-.48-1.44-1.44V52.24c0-.87.48-1.35 1.44-1.35h8.16c.96 0 1.44.48 1.44 1.35v19.58c0 3.75-.1 8.07-.2 12.96h.1c1.82-4.13 4.9-9.6 9.12-16.6l9.6-16.42a2.18 2.18 0 011.73-.87h9.6c.96 0 1.44.48 1.44 1.35v46.94c0 .96-.48 1.44-1.44 1.44h-8.16c-.96 0-1.44-.48-1.44-1.44v-19.3c0-3.74.1-7.96.19-12.57h-.1c-1.24 2.98-4.32 8.35-9.02 16.22l-9.8 16.13c-.38.67-.95.96-1.72.96zM637.9 100.62h-8.27c-.96 0-1.44-.48-1.44-1.44V52.24c0-.87.48-1.35 1.44-1.35h8.26c.96 0 1.44.48 1.44 1.35V69.9h18.62V52.24c0-.87.48-1.35 1.44-1.35h8.26c.96 0 1.44.48 1.44 1.35v46.94c0 .96-.48 1.44-1.44 1.44h-8.26c-.96 0-1.44-.48-1.44-1.44V79.8h-18.62v19.4c0 .95-.48 1.43-1.44 1.43zM721.5 69.42v9.7c0 .86-.47 1.34-1.43 1.34h-29.19v2.69c0 2.88.87 5.09 2.79 6.53 1.82 1.53 4.22 2.3 7.39 2.3 4.7 0 9.21-1.44 13.53-4.41.77-.48 1.44-.39 1.92.28l3.94 5.28c.67.68.58 1.35-.29 2.02-5.57 4.42-12.1 6.62-19.49 6.62-5.85 0-10.84-1.63-14.88-4.9-4.12-3.16-6.14-7.77-6.14-13.82V69.42c0-6.62 2.02-11.52 6.14-14.78 4.13-3.27 9.12-4.9 14.98-4.9 5.86 0 10.75 1.63 14.78 4.9 3.94 3.26 5.96 8.16 5.96 14.78zm-10.84-.1c0-3.35-.96-5.75-2.79-7.39-1.82-1.63-4.22-2.4-7.1-2.4-6.62 0-9.89 3.27-9.89 9.8v2.5h19.78v-2.5zM751.55 100.62h-8.25c-.96 0-1.44-.48-1.44-1.44v-38.5h-13.44c-.96 0-1.44-.47-1.44-1.43v-7.01c0-.87.48-1.35 1.44-1.35h37.92c.96 0 1.44.48 1.44 1.35v7c0 .97-.48 1.45-1.44 1.45h-13.35v38.5c0 .95-.48 1.43-1.44 1.43z" fill-rule="nonzero"/></g></svg>