<svg viewBox="0 0 130 130" xmlns="http://www.w3.org/2000/svg" fill-rule="evenodd" clip-rule="evenodd" stroke-linejoin="round" stroke-miterlimit="2"><path d="M60.8 61.1l-2.6 2.6h-2.62l-2.61-2.6V40.2l2.6-2.6h2.62l2.6 2.6v20.9h.01zM50.36 32.38l2.6 2.6v2.61l-2.6 2.61H29.49l-2.6-2.6v-2.62l2.6-2.6h20.87zm0 28.72l2.6 2.6v2.62l-2.6 2.6H29.49l-2.6-2.6v-2.63l2.6-2.6h20.87v.01zM60.8 89.8l-2.6 2.62h-2.62l-2.61-2.61V68.9l2.6-2.6h2.62l2.6 2.6v20.9h.01zm-10.44 0l2.6 2.62v2.61l-2.6 2.6H29.49l-2.6-2.6v-2.61l2.6-2.61h20.87v-.01zm18.78-28.7l2.61 2.6h2.61l2.61-2.6V40.2l-2.6-2.6h-2.62l-2.6 2.6v20.9h-.01zm10.43-28.72l-2.6 2.6v2.61l2.6 2.61h20.88l2.6-2.6v-2.62l-2.6-2.6H79.57zM69.14 89.8l2.61 2.62h2.61l2.61-2.61V68.9l-2.6-2.6h-2.62l-2.6 2.6v20.9h-.01zm10.43 0l-2.6 2.62v2.61l2.6 2.6h20.88l2.6-2.6v-2.61l-2.6-2.61H79.57v-.01z" fill="#fff"/><path d="M112.02 112.12H26.88l-8.96-9.06V17.88h94.1v94.24zm17.92-74.01v-8.97h-8.96V8.97h-20.17V0h-8.96v8.97h-6.72V0h-8.96v8.97h-6.72V0H60.5v8.97h-6.73V0H44.8v8.97h-6.72V0h-8.9v8.97H8.95v20.17H0v8.72h8.96v6.98H0v8.97h8.96v6.73H0v9h8.96v6.74H0v8.96h8.96v6.65H0v8.96h8.96v5.24l14.94 14.94h5.27V130h8.96v-8.97h6.73V130h8.96v-8.97h6.73V130h8.96v-8.97h6.71V130h8.96v-8.97h6.73V130h8.96v-8.97h20.17v-20.16H130v-8.98h-8.96v-6.7H130v-8.97h-8.96v-6.68H130v-8.96h-8.96v-6.73H130v-9.02h-8.96V38.1h8.9v.01z" fill="#fff"/></svg>